Coordinates
version=1
nRows=16
nColumns=22
inDegrees=yes

Units are S.I. units (second, meters, Newtons, ...)
If the header above contains a line with 'inDegrees', this indicates whether rotational values are in degrees (yes) or radians (no).

endheader
time	pelvis_tilt	pelvis_list	pelvis_rotation	pelvis_tx	pelvis_ty	pelvis_tz	hip_flexion_r	hip_adduction_r	hip_rotation_r	knee_angle_r	ankle_angle_r	subtalar_angle_r	hip_flexion_l	hip_adduction_l	hip_rotation_l	knee_angle_l	ankle_angle_l	subtalar_angle_l	lumbar_extension	lumbar_bending	lumbar_rotation
      2.45000000	     -7.99251916	      2.34941230	     -4.47268507	      0.31997150	      0.97056987	      0.20104709	     27.64955159	     -4.99135130	     -1.23331841	    -69.28134607	      3.69859241	     -0.50061415	     26.71637309	      5.42842153	     -5.03016632	    -28.37984621	     15.93697483	     -3.71929319	     -1.62108273	     -1.48434496	      4.08655580
      2.46000000	     -7.92249667	      2.30274036	     -4.37648453	      0.32784451	      0.97157192	      0.20052874	     28.67954687	     -5.00490968	     -1.27254582	    -68.83635868	      4.59251815	     -0.13151062	     25.94717633	      5.51326478	     -4.93667864	    -28.04394930	     16.31802140	     -3.82845897	     -1.74797089	     -1.39758337	      3.74433610
      2.47000000	     -7.86013983	      2.25223372	     -4.25478649	      0.33568131	      0.97247507	      0.20000200	     29.66092193	     -5.02513662	     -1.36202190	    -68.17212786	      5.54783674	      0.16202068	     25.19460080	      5.59004744	     -4.86064775	    -27.71837611	     16.69936334	     -3.87998748	     -1.86379634	     -1.30595634	      3.37403420
      2.48000000	     -7.79660392	      2.21849258	     -4.09992633	      0.34349690	      0.97328925	      0.19943107	     30.58931728	     -5.08815593	     -1.50694629	    -67.31222246	      6.52873586	      0.42906635	     24.43846758	      5.68852557	     -4.78440844	    -27.37853037	     17.06545482	     -3.92041565	     -1.97780685	     -1.23387133	      2.98586351
      2.49000000	     -7.72192098	      2.20480049	     -3.93137226	      0.35133760	      0.97404331	      0.19882538	     31.44964629	     -5.19566533	     -1.69645444	    -66.25914448	      7.48777234	      0.73053575	     23.65512836	      5.81404759	     -4.68707208	    -27.00982055	     17.43945843	     -3.96648403	     -2.09476176	     -1.18265987	      2.62240472
      2.50000000	     -7.65396565	      2.21677966	     -3.73135358	      0.35915195	      0.97468507	      0.19818790	     32.27008398	     -5.35338572	     -1.93993722	    -65.04719706	      8.40021164	      0.87403953	     22.88087912	      5.96731229	     -4.59300870	    -26.63510563	     17.78890586	     -3.99215461	     -2.20463342	     -1.16222463	      2.22497221
      2.51000000	     -7.57832193	      2.25267845	     -3.51745190	      0.36698133	      0.97524493	      0.19753487	     33.03396045	     -5.55965730	     -2.23584885	    -63.68582770	      9.24566164	      0.93421588	     22.09113976	      6.14471454	     -4.49810968	    -26.24580176	     18.13283241	     -4.01236184	     -2.31714184	     -1.16814694	      1.82063231
      2.52000000	     -7.51265558	      2.31065884	     -3.29743451	      0.37482427	      0.97568608	      0.19688211	     33.76180483	     -5.80732914	     -2.58408651	    -62.19400938	     10.01947929	      0.91161299	     21.31017923	      6.33789964	     -4.41770750	    -25.85221824	     18.48717648	     -4.02309142	     -2.41298109	     -1.19978014	      1.44785153
      2.53000000	     -7.41552945	      2.38470245	     -3.07986111	      0.38270706	      0.97611161	      0.19625244	     34.40189535	     -6.07371654	     -2.95952899	    -60.56979423	     10.67030405	      0.83593414	     20.47392293	      6.54937250	     -4.30582371	    -25.42375732	     18.82039659	     -4.03501538	     -2.54145096	     -1.25000177	      1.06089318
      2.54000000	     -7.32122488	      2.47315867	     -2.87497379	      0.39060450	      0.97643794	      0.19569131	     34.99829580	     -6.34998758	     -3.36905733	    -58.83858440	     11.22211789	      0.71900993	     19.63915871	      6.76054846	     -4.21711939	    -24.99473050	     19.16162410	     -4.04253606	     -2.66470571	     -1.32336274	      0.72193664
      2.55000000	     -7.24733343	      2.58175013	     -2.68588419	      0.39852469	      0.97662468	      0.19519014	     35.57293979	     -6.63904160	     -3.81392106	    -57.01878596	     11.68823619	      0.61974381	     18.83341156	      6.97710198	     -4.15896116	    -24.58174570	     19.50647978	     -4.04127282	     -2.75863696	     -1.41934496	      0.41433175
      2.56000000	     -7.16093973	      2.69445527	     -2.53316797	      0.40647965	      0.97675982	      0.19482196	     36.08611012	     -6.89291301	     -4.25563371	    -55.10748873	     12.03185490	      0.53874156	     18.00204897	      7.18260689	     -4.10402290	    -24.15396671	     19.84566836	     -4.04216798	     -2.86288744	     -1.52812852	      0.15287781
      2.57000000	     -7.08135099	      2.81693555	     -2.41180916	      0.41446085	      0.97679093	      0.19458590	     36.56627703	     -7.11958274	     -4.70850280	    -53.12967023	     12.27848707	      0.50555612	     17.18111495	      7.38024075	     -4.07966202	    -23.73743305	     20.17911144	     -4.04745382	     -2.95472103	     -1.65507436	     -0.05592660
      2.58000000	     -7.02865382	      2.95376766	     -2.31221335	      0.42245975	      0.97666757	      0.19446603	     37.03988899	     -7.32162182	     -5.16628801	    -51.10522383	     12.45376004	      0.53214450	     16.39697065	      7.57898721	     -4.06684494	    -23.34027805	     20.53021252	     -4.05363721	     -3.01118965	     -1.80446453	     -0.23158888
      2.59000000	     -6.96559968	      3.08428822	     -2.25259800	      0.43049522	      0.97649143	      0.19450783	     37.45645374	     -7.45140319	     -5.59352558	    -49.02016085	     12.50698703	      0.61378577	     15.59282560	      7.75750712	     -4.06397291	    -22.93377955	     20.86855169	     -4.06743884	     -3.07750354	     -1.95162634	     -0.35437496
      2.60000000	     -6.90758404	      3.21258389	     -2.22788738	      0.43856478	      0.97621574	      0.19470610	     37.83659133	     -7.51690633	     -5.99559511	    -46.89167018	     12.47188158	      0.76239538	     14.79531717	      7.91810183	     -4.08132767	    -22.53481691	     21.20186447	     -4.08167292	     -3.13398917	     -2.10249050	     -0.43909061
